<svg width="589" height="126" viewBox="0 0 589 126" fill="none" xmlns="http://www.w3.org/2000/svg">
<g clip-path="url(#clip0_2_1377)">
<path d="M70.2607 40.7059C69.3907 39.3559 68.2107 37.5759 66.7407 35.5359C65.6107 33.9558 64.5107 32.5458 63.3507 31.0359C60.6307 27.4659 56.8107 22.4959 51.1407 16.7059C47.2107 12.6959 44.9107 10.366 41.1107 7.76595C38.7007 6.11595 34.9607 3.59589 29.4807 1.94589C25.9907 0.895886 21.1707 -0.484075 15.9107 1.23592C14.0707 1.83592 10.9907 2.8459 10.2707 5.4659C9.80067 7.1759 10.3307 8.57587 11.1707 10.3059C11.1707 10.3059 13.0807 14.2259 15.0507 22.2959C15.8307 25.5159 16.9307 29.1059 15.7407 35.7859C14.2607 44.1159 13.8707 48.7059 13.8707 48.7059C13.6607 50.8059 14.0607 52.2559 14.8607 54.8159C15.5107 56.9159 16.6207 58.3659 17.1507 59.0459C17.9407 60.0659 19.1807 61.6559 21.3807 62.7459C23.9407 64.0159 26.3907 63.906 27.6007 63.766C27.1807 64.166 26.6007 64.7259 25.9307 65.4359C24.4307 67.0259 23.3807 68.3859 22.5507 69.4759C19.8807 73.0459 18.5407 74.8259 17.2807 77.1059C15.3207 80.6359 14.3207 83.6159 13.7507 85.3359C12.6907 88.5359 12.1907 91.0659 12.0107 91.9959C11.6407 93.9959 11.1207 96.8359 11.2007 100.576C11.2407 102.306 11.3007 104.556 12.0107 107.416C12.3807 108.876 13.0107 111.336 14.7107 114.136C15.1007 114.786 15.7307 115.836 16.7407 117.056C17.1407 117.536 17.8907 118.386 19.1107 119.446C20.7007 120.826 23.3107 123.096 27.2707 124.376C28.9707 124.926 30.4007 125.116 31.5907 125.286C32.6407 125.426 34.3707 125.606 36.4407 125.566C38.2807 125.536 42.0107 125.426 46.3607 123.666C50.1007 122.156 52.4607 120.156 53.0407 119.656C53.4507 119.296 54.5307 118.346 55.7107 116.916C57.7907 114.406 58.8107 112.136 59.0907 111.496C59.9107 109.606 60.2307 108.096 60.3607 107.416C60.6907 105.666 60.9007 104.446 60.3607 103.056C59.8807 101.806 59.0607 101.076 58.6707 100.736C58.1307 100.266 56.1907 98.5559 54.0307 99.1859C53.1807 99.4359 52.6707 99.9659 51.9207 100.736C51.4607 101.206 50.7207 102.076 49.8407 104.036C49.0407 105.806 49.0507 106.406 48.6207 107.466C47.2007 110.936 43.6807 112.696 42.3707 113.256C40.2007 114.176 38.3607 114.216 36.8807 114.246C35.3107 114.276 32.8407 114.306 30.0207 113.026C29.0907 112.606 26.6607 111.466 24.7607 108.836C24.4007 108.336 23.1007 106.456 22.4707 102.896C21.6207 98.096 22.6807 94.2059 23.6907 90.6259C24.4607 87.9059 25.7107 83.626 29.0207 78.896C30.0607 77.416 32.9607 73.5159 37.9407 70.0559C38.7207 69.5159 41.7107 67.4858 46.0907 65.7859C48.3307 64.9158 49.4507 64.496 50.8907 64.266C52.3207 64.036 52.9707 64.1159 53.9407 63.5759C55.6007 62.6659 56.2707 60.996 56.4507 60.526C56.6807 59.936 57.4507 57.9659 56.4507 55.8759C56.4407 55.8559 56.4307 55.8359 56.4207 55.8159C55.4907 53.9259 53.4907 52.8059 51.3907 52.8059H25.1507C25.1507 52.6159 25.1407 52.5559 25.1407 52.2159C25.1407 49.6059 25.0907 49.3959 25.1107 48.5459C25.1407 47.2159 25.2807 46.2259 25.4807 44.8059C25.6007 43.9359 25.6507 43.7559 25.9107 42.2059C26.1007 41.0759 26.2407 40.166 26.5007 38.406C27.1207 34.326 27.4307 32.2759 27.4707 31.6259C27.5907 29.8659 27.5407 28.666 27.4407 26.266C27.3607 24.416 27.1307 22.946 26.7907 21.156C26.4907 19.836 26.1707 18.8659 25.8807 17.9959C25.4807 16.7859 25.1207 15.8759 24.8107 15.1159C24.4607 14.2459 24.0107 13.1659 23.4207 11.9159C23.7107 11.9059 24.1507 11.9059 24.6607 11.9559C26.7607 12.1559 28.2207 13.0259 29.3907 13.6959C34.0607 16.4059 33.2507 15.6559 35.0607 16.8759C39.7007 19.9959 42.9407 23.4959 45.4207 26.1959C47.0607 27.9859 48.4407 29.6759 52.9307 35.6059C55.2707 38.6859 58.4307 42.9159 62.1707 48.0359C62.4507 48.3259 62.9107 48.7159 63.5507 48.9859C65.4407 49.7759 67.5707 48.9059 68.8207 47.8659C70.3807 46.5659 70.7407 44.8459 70.8107 44.4959C71.1907 42.5959 70.4907 41.1359 70.2607 40.7059Z" fill="#F6F6F6"/>
<path d="M106.811 51.496H67.2908C64.4108 51.496 62.0708 53.8359 62.0708 56.7159V57.776C62.0708 60.656 64.4108 62.996 67.2908 62.996H81.2608C81.2008 63.206 81.1508 63.426 81.1108 63.656L74.2408 107.496C73.7708 110.496 75.8208 113.316 78.8208 113.786C81.8208 114.256 84.6408 112.206 85.1108 109.206L91.9808 65.366C92.1108 64.546 92.0408 63.746 91.8308 63.006H106.801C109.681 63.006 112.021 60.6659 112.021 57.7859V56.726C112.031 53.836 109.691 51.496 106.811 51.496Z" fill="#F6F6F6"/>
<path d="M108.411 40.246C108.181 40.876 107.131 43.8059 108.881 46.1659C110.171 47.9059 112.511 48.7059 114.871 48.2959C115.441 47.8659 116.311 47.206 117.331 46.366C122.391 42.246 125.611 38.586 126.811 37.256C131.651 31.906 136.691 27.9659 142.501 23.4159C149.821 17.6859 153.861 15.5359 157.311 14.0759C159.851 12.9959 162.041 12.306 163.571 11.876C162.981 12.656 162.171 13.766 161.281 15.136C160.081 16.996 157.501 21.006 155.641 26.596C154.981 28.576 153.571 32.876 153.261 38.496C153.111 41.126 153.271 42.886 152.551 45.726C151.841 48.546 150.701 50.726 149.821 52.156C140.271 52.156 130.721 52.156 121.171 52.156C119.141 53.046 117.771 54.926 117.641 57.006C117.451 60.206 120.351 62.0559 120.721 62.2959C121.851 63.0159 122.631 62.996 124.071 63.356C127.311 64.156 129.511 65.7559 131.651 67.3259C133.081 68.3659 135.831 70.416 138.001 73.846C140.931 78.496 141.151 83.056 141.301 86.336C141.431 89.076 141.671 94.916 138.601 101.336C137.421 103.806 135.541 107.716 131.221 110.556C128.021 112.656 124.891 113.236 123.351 113.506C120.011 114.096 117.401 114.726 114.741 113.386C112.291 112.146 111.061 109.936 110.521 108.766C110.561 107.956 110.581 106.786 110.521 105.386C110.461 103.936 110.421 103.216 110.241 102.646C109.691 100.956 107.851 99.376 105.671 99.126C103.271 98.846 100.871 100.226 99.7607 102.576C99.5507 103.556 99.3307 104.936 99.3407 106.586C99.3507 107.826 99.4907 111.276 101.451 115.096C103.611 119.306 106.731 121.526 107.641 122.136C111.921 125.006 116.181 125.186 119.041 125.306C127.151 125.636 133.141 122.366 135.151 121.226C136.341 120.556 141.561 117.506 145.921 111.306C146.401 110.616 148.411 107.706 150.071 103.356C150.611 101.936 153.091 95.216 152.601 85.906C152.371 81.506 152.031 74.986 147.861 68.336C146.311 65.866 144.661 64.046 143.411 62.836C145.251 63.386 148.681 64.086 152.411 62.836C159.701 60.386 162.141 51.186 163.301 47.006C163.701 45.576 163.941 44.106 164.141 42.996C165.171 37.276 164.851 35.066 165.261 32.226C166.361 24.596 171.801 18.7059 173.101 17.2959C175.711 14.4759 178.181 12.896 179.131 9.15602C179.641 7.14602 179.501 5.34601 179.291 4.14601C179.011 3.56601 178.511 2.73596 177.661 1.96596C176.021 0.49596 174.141 0.25594 173.431 0.19594C170.911 -0.0540595 167.391 -0.164021 163.271 0.485979C158.991 1.16598 155.901 2.37598 154.051 3.11598C148.751 5.22598 143.061 9.19591 142.201 9.78591C138.361 12.4259 133.411 16.0959 127.871 20.9459C125.761 22.7459 120.821 26.9859 116.261 31.2959C115.841 31.6859 114.471 33.126 111.731 35.996C109.461 38.366 108.841 39.036 108.411 40.246Z" fill="#F6F6F6"/>
<path d="M237.741 89.8017C237.741 90.0217 237.781 90.2817 237.851 90.5717C238.001 91.1617 238.071 91.7117 238.071 92.2217C238.071 93.5417 237.781 94.7317 237.191 95.8017C236.601 96.8617 235.801 97.7617 234.771 98.5017C232.721 99.9717 230.221 100.702 227.291 100.702C224.871 100.702 222.481 100.152 220.141 99.0517C217.791 97.9517 215.661 96.3017 213.761 94.1017C211.851 91.9017 210.331 89.1717 209.191 85.9017C208.051 82.6417 207.481 78.8017 207.481 74.4017L207.591 42.6017C207.591 38.2017 208.761 35.0417 211.111 33.1417C213.461 31.2317 216.871 30.2817 221.351 30.2817C221.281 30.7917 221.201 31.4917 221.131 32.3717C221.061 33.1817 221.001 34.2617 220.961 35.6217C220.921 36.9817 220.911 38.7617 220.911 40.9617L221.021 47.8917H235.771C235.771 51.1917 234.851 53.8317 233.021 55.8117C231.191 57.7917 228.581 58.7817 225.211 58.7817H221.031L220.921 74.4117C220.921 77.4917 221.201 80.0817 221.751 82.1717C222.301 84.2617 223.051 85.9717 224.011 87.2917C225.991 89.7917 228.561 91.0317 231.711 91.0317C233.031 91.0317 234.351 90.8517 235.671 90.4817C236.381 90.2417 237.081 90.0217 237.741 89.8017Z" fill="#F6F6F6"/>
<path d="M243.571 72.9717C243.571 68.0617 244.281 64.0417 245.721 60.9217C247.151 57.8017 249.001 55.3617 251.281 53.6017C253.551 51.8417 256.101 50.6517 258.931 50.0217C261.751 49.4017 264.561 49.0817 267.351 49.0817H272.741C273.111 50.6217 273.181 52.0517 272.961 53.3717C272.811 54.4717 272.321 55.5417 271.471 56.5617C270.631 57.5917 269.251 58.2117 267.341 58.4317C266.091 58.5817 264.861 58.8517 263.651 59.2617C262.441 59.6617 261.361 60.3617 260.401 61.3517C259.451 62.3417 258.661 63.7517 258.031 65.5917C257.411 67.4217 257.091 69.8817 257.091 72.9617V88.9217C257.091 91.1217 257.111 92.9017 257.141 94.2617C257.181 95.6217 257.231 96.7017 257.311 97.5117C257.381 98.3917 257.461 99.0517 257.531 99.4917C253.051 99.4917 249.611 98.5517 247.191 96.6817C244.771 94.8117 243.561 91.6717 243.561 87.2717V72.9717H243.571Z" fill="#F6F6F6"/>
<path d="M284.621 71.4217C286.601 70.1717 288.841 69.2417 291.331 68.6117C293.821 67.9917 296.431 67.6717 299.141 67.6717C302.951 67.6717 306.591 68.2217 310.041 69.3217C309.821 67.0517 309.341 65.0317 308.611 63.2717C307.661 61.0017 306.231 59.3517 304.321 58.3217C303.591 57.9517 302.801 57.6817 301.951 57.4917C301.111 57.3117 300.131 57.2117 299.031 57.2117H297.821C296.791 57.2817 295.771 57.4517 294.741 57.7117C293.711 57.9717 292.681 58.2817 291.661 58.6517C290.631 59.0217 289.611 59.3317 288.581 59.5917C287.551 59.8517 286.561 59.9717 285.611 59.9717C284.581 59.9717 283.591 59.7517 282.641 59.3117C281.761 58.8017 280.991 57.9517 280.331 56.7817L280.111 56.3417L280.331 56.0117C282.531 53.6617 285.121 51.7717 288.091 50.3417C291.061 48.9117 294.311 48.0817 297.831 47.8617C298.201 47.7917 298.511 47.7517 298.771 47.7517C299.031 47.7517 299.341 47.7517 299.711 47.7517C303.081 47.7517 306.171 48.3517 308.951 49.5717C311.741 50.7817 314.161 52.4517 316.211 54.5817C320.391 59.1317 322.551 65.1117 322.701 72.5217V73.4017C322.701 81.0317 320.761 87.2317 316.871 92.0017C314.961 94.3517 312.671 96.2617 309.991 97.7217C307.311 99.1917 304.321 100.102 301.021 100.472C300.581 100.542 300.141 100.582 299.701 100.582C299.261 100.582 298.781 100.582 298.271 100.582C296.731 100.582 295.111 100.452 293.431 100.202C291.741 99.9417 290.091 99.4517 288.481 98.7117C286.791 98.0517 285.251 97.1917 283.861 96.1217C282.471 95.0617 281.291 93.6817 280.341 91.9917C278.951 89.8617 278.211 87.2617 278.141 84.1817V83.5217C278.141 80.6617 278.731 78.2717 279.901 76.3717C280.911 74.4717 282.491 72.8217 284.621 71.4217ZM307.401 76.7117C306.451 76.5617 305.361 76.4217 304.151 76.2717C302.941 76.1217 301.711 76.0517 300.461 76.0517C299.431 76.0517 298.441 76.1117 297.491 76.2217C296.541 76.3317 295.661 76.5317 294.851 76.8217C293.021 77.4117 291.621 78.3217 290.671 79.5717C290.301 80.0117 290.011 80.5117 289.791 81.0617C289.571 81.6117 289.421 82.2217 289.351 82.8817C289.281 83.1017 289.241 83.4317 289.241 83.8717C289.241 84.6017 289.351 85.3917 289.571 86.2417C289.791 87.0817 290.231 87.8717 290.891 88.6117C291.481 89.3417 292.341 89.9717 293.481 90.4817C294.621 90.9917 296.141 91.2517 298.051 91.2517C298.641 91.2517 299.081 91.2117 299.371 91.1417C301.421 91.0717 303.221 90.4817 304.761 89.3817C305.491 88.9417 306.121 88.4117 306.631 87.7817C307.141 87.1617 307.581 86.4817 307.951 85.7417C308.761 84.3517 309.311 82.9217 309.601 81.4517C309.891 79.9817 310.041 78.6317 310.041 77.3817C309.971 77.3817 309.911 77.3617 309.871 77.3217C309.831 77.2817 309.781 77.2717 309.701 77.2717C309.411 77.2017 309.081 77.1217 308.711 77.0517C308.351 76.9717 307.911 76.8617 307.401 76.7117Z" fill="#F6F6F6"/>
<path d="M331.061 71.7517C331.061 66.8417 331.781 62.8217 333.211 59.7017C334.641 56.5817 336.471 54.1417 338.711 52.3817C340.951 50.6217 343.481 49.4317 346.301 48.8017C349.121 48.1817 351.971 47.8617 354.831 47.8617C357.621 47.8617 360.441 48.1717 363.301 48.8017C366.161 49.4217 368.751 50.6217 371.061 52.3817C373.371 54.1417 375.241 56.5817 376.671 59.7017C378.101 62.8217 378.821 66.8417 378.821 71.7517L379.261 99.4817C374.781 99.4817 371.341 98.5317 368.921 96.6217C366.501 94.7117 365.291 91.6017 365.291 87.2717L365.401 71.7517C365.401 68.6717 365.091 66.1917 364.461 64.3217C363.841 62.4517 363.011 60.9817 361.981 59.9217C360.951 58.8617 359.811 58.1417 358.571 57.7717C357.321 57.4017 356.071 57.2217 354.831 57.2217C353.581 57.2217 352.351 57.4017 351.141 57.7717C349.931 58.1417 348.831 58.8517 347.841 59.9217C346.851 60.9817 346.041 62.4517 345.421 64.3217C344.791 66.1917 344.481 68.6717 344.481 71.7517V88.8117C344.551 91.0117 344.611 92.8117 344.651 94.2017C344.691 95.5917 344.741 96.7017 344.821 97.5017C344.891 98.3817 344.971 99.0417 345.041 99.4817C340.491 99.4817 337.011 98.5317 334.581 96.6217C332.161 94.7117 330.951 91.6017 330.951 87.2717L331.061 71.7517Z" fill="#F6F6F6"/>
<path d="M413.701 86.6117C413.851 85.3617 413.501 84.3217 412.651 83.4717C411.811 82.6317 410.601 81.8217 409.021 81.0517C407.441 80.2817 405.591 79.4517 403.461 78.5717C401.331 77.6917 399.091 76.5217 396.751 75.0517C394.991 74.0217 393.541 72.7917 392.401 71.3617C391.261 69.9317 390.441 68.3917 389.921 66.7417C389.411 65.0917 389.191 63.4017 389.261 61.6817C389.331 59.9617 389.741 58.2517 390.471 56.5617C391.201 54.9517 392.161 53.5917 393.331 52.4917C394.501 51.3917 395.811 50.4917 397.241 49.7917C398.671 49.0917 400.121 48.6017 401.591 48.3017C403.061 48.0117 404.411 47.8617 405.661 47.8617H406.981C410.871 48.0817 414.431 49.0317 417.651 50.7217C420.881 52.4117 423.631 54.6517 425.901 57.4317L426.231 57.7617L425.901 58.2017C425.171 59.2317 424.361 60.0017 423.481 60.5117C422.671 61.0217 421.761 61.2817 420.731 61.2817C419.701 61.2817 418.711 61.0817 417.761 60.6717C416.811 60.2717 415.781 59.8417 414.681 59.4017C413.291 58.8117 411.981 58.3217 410.771 57.9117C409.561 57.5117 408.331 57.3017 407.081 57.3017C405.471 57.3017 404.251 57.6517 403.451 58.3417C402.641 59.0417 402.171 59.8617 402.021 60.8217C401.871 62.2117 402.311 63.3717 403.341 64.2917C404.371 65.2117 405.871 66.0717 407.851 66.8817C410.121 67.8317 412.541 68.8817 415.111 70.0217C417.681 71.1617 419.951 72.5517 421.931 74.2017C423.911 75.8517 425.411 77.8317 426.441 80.1417C427.471 82.4517 427.581 85.2617 426.771 88.5617C426.401 89.8817 425.781 91.2617 424.901 92.6917C424.021 94.1217 422.791 95.4217 421.211 96.6017C419.631 97.7717 417.721 98.7517 415.491 99.5217C413.251 100.292 410.631 100.682 407.621 100.682C407.031 100.682 406.561 100.642 406.191 100.572C402.671 100.422 399.201 99.5117 395.791 97.8217C392.381 96.1317 389.531 93.9017 387.261 91.1117L386.931 90.7817L387.261 90.3417C387.631 89.7517 388.031 89.2817 388.471 88.9117C388.911 88.5417 389.311 88.2117 389.681 87.9217C390.561 87.4817 391.441 87.2617 392.321 87.2617C393.351 87.2617 394.341 87.4617 395.291 87.8717C396.241 88.2717 397.271 88.7017 398.371 89.1417C399.401 89.6517 400.551 90.0917 401.841 90.4617C403.121 90.8317 404.541 91.0817 406.081 91.2317C408.721 91.2317 410.611 90.7217 411.751 89.6917C412.911 88.6717 413.561 87.6417 413.701 86.6117Z" fill="#F6F6F6"/>
<path d="M435.051 74.2917C435.051 70.6217 435.691 67.1917 436.981 64.0017C438.261 60.8117 440.011 58.0417 442.211 55.6917C444.411 53.2717 447.001 51.3617 449.971 49.9717C452.941 48.5817 456.151 47.8817 459.601 47.8817C463.341 47.8817 466.731 48.5817 469.781 49.9717C472.821 51.3617 475.411 53.2717 477.541 55.6917C479.671 58.0417 481.321 60.8117 482.491 64.0017C483.661 67.1917 484.251 70.6217 484.251 74.2917C484.251 77.9617 483.611 81.3917 482.321 84.5817C481.041 87.7717 479.261 90.5417 476.981 92.8917C474.781 95.3117 472.191 97.2217 469.221 98.6117C466.251 100.002 463.041 100.702 459.591 100.702C455.411 100.702 451.701 99.8617 448.471 98.1717L448.581 114.902C448.581 117.102 448.601 118.902 448.631 120.292C448.671 121.682 448.721 122.782 448.801 123.592C448.871 124.472 448.951 125.132 449.021 125.572C444.471 125.572 441.001 124.622 438.621 122.712C436.241 120.802 435.041 117.652 435.041 113.252V74.2917H435.051ZM459.591 91.2317C460.541 91.2317 461.661 91.0117 462.951 90.5717C464.231 90.1317 465.461 89.3017 466.641 88.0917C467.811 86.8817 468.801 85.1617 469.611 82.9217C470.421 80.6817 470.821 77.8017 470.821 74.2817C470.821 70.7617 470.421 67.9017 469.611 65.7017C468.801 63.5017 467.811 61.7917 466.641 60.5817C465.471 59.3717 464.241 58.5417 462.951 58.1017C461.671 57.6617 460.551 57.4417 459.591 57.4417C458.641 57.4417 457.521 57.6617 456.231 58.1017C454.941 58.5417 453.721 59.3717 452.541 60.5817C451.371 61.7917 450.371 63.5017 449.571 65.7017C448.761 67.9017 448.361 70.7617 448.361 74.2817C448.361 77.8017 448.761 80.6817 449.571 82.9217C450.381 85.1617 451.371 86.8817 452.541 88.0917C453.711 89.3017 454.941 90.1317 456.231 90.5717C457.521 91.0117 458.641 91.2317 459.591 91.2317Z" fill="#F6F6F6"/>
<path d="M533.881 55.6917C536.151 58.0417 537.931 60.8117 539.221 64.0017C540.501 67.1917 541.151 70.6217 541.151 74.2917C541.151 77.9617 540.561 81.3917 539.391 84.5817C538.221 87.7717 536.561 90.5417 534.441 92.8917C532.311 95.3117 529.731 97.2217 526.681 98.6117C523.641 100.002 520.241 100.702 516.501 100.702C513.121 100.702 509.951 100.002 506.981 98.6117C504.011 97.2217 501.381 95.3117 499.111 92.8917C496.911 90.5417 495.171 87.7717 493.881 84.5817C492.591 81.3917 491.951 77.9617 491.951 74.2917C491.951 70.6217 492.521 67.1917 493.661 64.0017C494.801 60.8117 496.431 58.0417 498.561 55.6917C500.691 53.2717 503.271 51.3617 506.321 49.9717C509.361 48.5817 512.761 47.8817 516.501 47.8817C519.951 47.8817 523.161 48.5817 526.131 49.9717C529.091 51.3617 531.681 53.2717 533.881 55.6917ZM516.491 91.2317C517.441 91.2317 518.561 91.0117 519.851 90.5717C521.131 90.1317 522.361 89.2917 523.541 88.0417C524.711 86.7917 525.701 85.0717 526.511 82.8717C527.321 80.6717 527.721 77.8117 527.721 74.2917C527.721 70.7717 527.321 67.8917 526.511 65.6517C525.701 63.4117 524.711 61.6917 523.541 60.4817C522.371 59.2717 521.141 58.4417 519.851 58.0017C518.571 57.5617 517.451 57.3417 516.491 57.3417C515.541 57.3417 514.421 57.5617 513.131 58.0017C511.841 58.4417 510.621 59.2717 509.441 60.4817C508.271 61.6917 507.271 63.4117 506.471 65.6517C505.661 67.8917 505.261 70.7717 505.261 74.2917C505.261 77.8117 505.661 80.6717 506.471 82.8717C507.281 85.0717 508.271 86.8017 509.441 88.0417C510.611 89.2917 511.841 90.1317 513.131 90.5717C514.411 91.0117 515.541 91.2317 516.491 91.2317Z" fill="#F6F6F6"/>
<path d="M549.391 72.9717C549.391 68.0617 550.111 64.0417 551.541 60.9217C552.971 57.8017 554.821 55.3617 557.101 53.6017C559.371 51.8417 561.921 50.6517 564.751 50.0217C567.571 49.4017 570.381 49.0817 573.171 49.0817H578.561C578.931 50.6217 579.001 52.0517 578.781 53.3717C578.631 54.4717 578.141 55.5417 577.291 56.5617C576.451 57.5917 575.071 58.2117 573.161 58.4317C571.911 58.5817 570.681 58.8517 569.471 59.2617C568.261 59.6617 567.181 60.3617 566.221 61.3517C565.271 62.3417 564.481 63.7517 563.851 65.5917C563.221 67.4217 562.911 69.8817 562.911 72.9617V88.9217C562.911 91.1217 562.931 92.9017 562.961 94.2617C563.001 95.6217 563.051 96.7017 563.131 97.5117C563.201 98.3917 563.281 99.0517 563.351 99.4917C558.871 99.4917 555.431 98.5517 553.011 96.6817C550.591 94.8117 549.381 91.6717 549.381 87.2717V72.9717H549.391Z" fill="#F6F6F6"/>
</g>
<defs>
<clipPath id="clip0_2_1377">
<rect width="589" height="125.572" fill="white"/>
</clipPath>
</defs>
</svg>
