<svg width="205" height="174" viewBox="0 0 205 174" fill="none" xmlns="http://www.w3.org/2000/svg">
<path fill-rule="evenodd" clip-rule="evenodd" d="M146.944 22.5435C156.501 23.0329 164.097 27.863 171.693 33.2866C196.605 51.0973 204.937 78.7316 187.866 105.887C161.32 147.999 99.4879 175.56 51.5416 162.84C40.9232 160.037 26.5474 157.566 16.0107 143.877C6.20905 131.148 6.61745 116.016 11.1099 102.007C15.684 87.6438 24.5054 74.4242 31.5299 65.9266C62.2417 28.8517 123.747 -4.84446 179.371 12.9199C180.515 13.2621 181.658 12.6735 181.985 11.6052C182.312 10.5369 181.74 9.39139 180.678 9.04911C123.42 -9.2331 59.9543 25.1866 28.3441 63.3421C19.6043 73.9381 8.1697 91.626 4.90249 109.927C2.69712 122.435 4.24873 135.221 12.7435 146.344C23.9337 160.926 39.208 163.782 50.4799 166.768C99.9781 179.905 163.933 151.538 191.296 108.046C209.674 78.8584 200.853 49.1282 174.062 29.9842C165.894 24.0996 157.562 19.0142 147.189 18.4841C146.045 18.4264 145.065 19.289 145.065 20.4093C144.984 21.5297 145.882 22.4858 146.944 22.5435Z" fill="#A9D2EA" stroke="#A9D2EA" stroke-width="8"/>
</svg>
