<svg width="155" height="169" viewBox="0 0 155 169" fill="none" xmlns="http://www.w3.org/2000/svg">
<path fill-rule="evenodd" clip-rule="evenodd" d="M51.8609 157.71C37.0606 153.577 21.5652 151.492 6.53371 149.581C3.29615 149.181 0.290304 151.416 0.0590498 154.564C-0.403458 157.715 1.91044 160.596 4.91674 160.996C19.4857 162.835 34.5159 164.803 48.6224 168.782C51.6287 169.645 54.8676 167.868 55.7926 164.812C56.7176 161.758 54.8672 158.575 51.8609 157.71Z" fill="#FBB6C4"/>
<path fill-rule="evenodd" clip-rule="evenodd" d="M96.7223 99.1095C72.9031 74.9194 46.0776 53.8432 22.721 29.0041C20.6397 26.6843 16.9396 26.56 14.6271 28.7256C12.3145 30.8936 12.0842 34.539 14.3967 36.8588C37.7534 61.7692 64.5788 82.9145 88.398 107.176C90.7105 109.44 94.4097 109.473 96.7223 107.245C98.8035 105.019 99.0348 101.374 96.7223 99.1095Z" fill="#FBB6C4"/>
<path fill-rule="evenodd" clip-rule="evenodd" d="M141.357 6.06595C142.051 19.9112 142.744 33.7564 143.437 47.604C143.437 50.7753 146.214 53.224 149.451 53.0698C152.689 52.9133 155 50.2138 155 47.0401C154.306 33.1719 153.614 19.3059 152.92 5.43996C152.689 2.26863 149.913 -0.163959 146.676 0.00864598C143.669 0.181251 141.126 2.89692 141.357 6.06595Z" fill="#FBB6C4"/>
</svg>
