<svg width="366" height="131" viewBox="0 0 366 131" fill="none" xmlns="http://www.w3.org/2000/svg">
<g clip-path="url(#clip0_2_1421)">
<path d="M12.4906 40.2741C100.705 36.57 188.919 32.8659 277.133 29.1618L353.299 25.9637L349.855 0.474945C282.96 12.1499 217.726 31.7255 155.048 57.8286C149.09 60.3098 144.732 65.153 145.769 72.066C146.716 78.3738 151.915 83.3104 158.491 83.3173C176.52 83.3362 193.989 87.535 210.258 95.3099V72.9009C201.294 77.1635 191.298 80.6996 182.973 86.1106C173.358 92.3599 169.707 104.685 173.991 115.234C179.168 127.978 191.161 130.199 203.536 130.97C220.185 132.007 220.124 106.051 203.536 105.017C201.323 104.88 199.048 104.469 196.835 104.449C196.132 104.443 197.784 104.669 197.733 105.149C197.533 107.011 197.269 103.727 197.939 105.615C198.778 107.98 198.162 104.11 197.978 106.437C197.842 108.163 195.202 108.443 198.154 107.284C199.495 106.757 200.79 106.031 202.089 105.413C209.17 102.045 216.252 98.6775 223.333 95.3099C231.812 91.2777 231.787 76.9411 223.333 72.9009C202.876 63.1247 181.247 57.389 158.491 57.3652L161.935 82.8539C224.613 56.7508 289.847 37.1753 356.742 25.5003C371.149 22.986 367.771 -0.596157 353.299 0.0115412C265.085 3.71555 176.87 7.41961 88.6561 11.1237L12.4906 14.3219C-4.1196 15.0193 -4.20737 40.9752 12.4906 40.2741Z" fill="#A9D2EA"/>
</g>
<defs>
<clipPath id="clip0_2_1421">
<rect width="366" height="131" fill="white"/>
</clipPath>
</defs>
</svg>
